<svg width="800" height="600" xmlns="http://www.w3.org/2000/svg">
  <rect width="100%" height="100%" fill="#f0f4f9"/>
  <path d="M0,400 C150,360 250,440 400,380 C550,320 700,420 800,380 L800,600 L0,600 Z" fill="#a3c9a8"/>
  <path d="M0,450 C100,430 200,470 300,430 C400,390 500,450 600,420 C700,390 800,430 800,410 L800,600 L0,600 Z" fill="#69995d"/>
  <path d="M600,350 C620,330 650,340 660,320 C670,300 690,310 700,300 L700,600 L600,600 Z" fill="#3c5233" opacity="0.8"/>
  <path d="M500,380 C520,360 550,370 560,350 C570,330 590,340 600,330 L600,600 L500,600 Z" fill="#3c5233" opacity="0.6"/>
  <circle cx="700" cy="120" r="60" fill="#f9e076" opacity="0.8"/>
  <text x="50%" y="50%" dominant-baseline="middle" text-anchor="middle" font-family="Arial" font-size="24" fill="#3c5233">Krishok's - Agricultural Dashboard</text>
</svg> 